<svg viewBox="320.5 108.0588 380 247.8823" width="5000" height="3261.6092105263156" xmlns="http://www.w3.org/2000/svg" xmlns:xlink="http://www.w3.org/1999/xlink" preserveAspectRatio="none"><defs></defs><style>.companyName {fill:#2B2B2B;fill-opacity:1;}.icon1 {fill:#2B2B2B;fill-opacity:1;}.icon2 {fill:#59C65B;fill-opacity:1;}.icon3 {fill:#6D6D6D;fill-opacity:1;}.icon3-str {stroke:#6D6D6D;stroke-opacity:1;}</style><g opacity="1" transform="rotate(0 448.6423 108.0588)">
<svg width="123.7155" height="122.2727" x="448.6423" y="108.0588" version="1.1" preserveAspectRatio="none" viewBox="56.99872589111328 57.500789642333984 86.00109100341797 84.99813842773438">
  <g transform="matrix(1 0 0 1 0 0)"><g><path d="M128.111 129.219c9.699-11.761 11.306-26.157 13.092-40.48.87-6.979-.782-13.591-3.404-19.968-1.992-4.846-4.188-5.969-9.177-4.834-6.325 1.439-9.958 5.975-11.338 11.843-1.434 6.094-1.898 12.426-2.64 18.671-.391 3.289-1.145 5.803-4.881 3.982-2.088-2.82-4.106-6.145-7.021-7.42-8.819-3.857-17.986-6.919-27.745-10.562-1.599 19.474 22.835 45.998 51.436 50.274.528-.467 1.191-.915 1.678-1.506z" data-color="1" class="icon1"></path><path d="M140.075 65.693c-1.187-3.803-3.044-6.485-7.132-7.485-13.039-3.191-26.994 4.717-30.916 17.667-.968 3.197-1.858 6.417-2.92 10.096-5.487-2.153-10.243-4.281-15.169-5.881-5.672-1.842-11.413-3.962-17.274-4.608-7.294-.804-10.053 2.475-9.622 9.674.123 2.06.482 4.181 1.166 6.121 6.385 18.118 18.625 30.67 36.491 37.577 6.479 2.505 13.193 4.401 20.94 6.95l-11.783 6.125c6.018 1.149 10.182.622 13.933-2.142 8.775-6.469 16.339-13.973 19.59-24.762 1.655-5.494 3.03-11.091 4.195-16.711 2.277-10.972 1.862-21.851-1.499-32.621zM68.031 80.451c9.758 3.643 18.925 6.705 27.745 10.562 2.915 1.275 4.934 4.6 7.021 7.42 3.736 1.821 4.49-.694 4.881-3.982.743-6.245 1.206-12.576 2.64-18.671 1.38-5.868 5.012-10.404 11.338-11.843 4.989-1.135 7.184-.012 9.177 4.834 2.622 6.377 4.274 12.989 3.404 19.968-1.786 14.323-3.394 28.719-13.092 40.48-.488.592-1.15 1.04-1.677 1.507-28.602-4.277-53.036-30.8-51.437-50.275z" data-color="2" class="icon2"></path></g></g>
</svg>
</g><g opacity="1" transform="rotate(0 320.5 333.3958)">
<svg width="380" height="22.5453" x="320.5" y="333.3958" version="1.1" preserveAspectRatio="none" viewBox="0.0391 -30 649.3874000000001 38.5352">
  <g transform="matrix(1 0 0 1 0 0)" class="companyName"><path id="id-6izo4zJp35" d="M6.46-28.44L12.34-15.63L18.26-28.44L24.67-28.44L15.33-10.31L15.33 0L9.38 0L9.38-10.31L0.04-28.44L6.46-28.44Z M25.55-10.51L25.55-10.76Q25.55-13.91 26.76-16.37Q27.97-18.83 30.24-20.18Q32.52-21.52 35.53-21.52L35.53-21.52Q39.80-21.52 42.51-18.91Q45.21-16.29 45.53-11.80L45.53-11.80L45.57-10.35Q45.57-5.49 42.85-2.55Q40.14 0.39 35.57 0.39Q31.00 0.39 28.27-2.54Q25.55-5.47 25.55-10.51L25.55-10.51ZM31.19-10.35L31.19-10.35Q31.19-7.34 32.32-5.75Q33.46-4.16 35.57-4.16L35.57-4.16Q37.62-4.16 38.77-5.73Q39.92-7.30 39.92-10.76L39.92-10.76Q39.92-13.71 38.77-15.33Q37.62-16.95 35.53-16.95L35.53-16.95Q33.46-16.95 32.32-15.34Q31.19-13.73 31.19-10.35Z M62.65 0L62.50-2.15Q60.41 0.39 56.72 0.39L56.72 0.39Q53.32 0.39 51.53-1.56Q49.74-3.52 49.71-7.29L49.71-7.29L49.71-21.13L55.35-21.13L55.35-7.48Q55.35-4.18 58.36-4.18L58.36-4.18Q61.23-4.18 62.30-6.17L62.30-6.17L62.30-21.13L67.97-21.13L67.97 0L62.65 0Z M84.98-21.27L84.90-15.84Q83.75-16.00 82.87-16.00L82.87-16.00Q79.67-16.00 78.67-13.83L78.67-13.83L78.67 0L73.02 0L73.02-21.13L78.36-21.13L78.51-18.61Q80.21-21.52 83.22-21.52L83.22-21.52Q84.16-21.52 84.98-21.27L84.98-21.27Z M99.55-28.44L107.20-28.44L114.51-7.81L121.77-28.44L129.47-28.44L129.47 0L123.59 0L123.59-7.77L124.18-21.19L116.50 0L112.48 0L104.82-21.17L105.41-7.77L105.41 0L99.55 0L99.55-28.44Z M144.74 0.39L144.74 0.39Q140.09 0.39 137.17-2.46Q134.25-5.31 134.25-10.06L134.25-10.06L134.25-10.61Q134.25-13.79 135.48-16.30Q136.71-18.81 138.97-20.17Q141.23-21.52 144.12-21.52L144.12-21.52Q148.45-21.52 150.94-18.79Q153.43-16.05 153.43-11.04L153.43-11.04L153.43-8.73L139.98-8.73Q140.25-6.66 141.63-5.41Q143.00-4.16 145.11-4.16L145.11-4.16Q148.37-4.16 150.21-6.52L150.21-6.52L152.98-3.42Q151.71-1.62 149.55-0.62Q147.38 0.39 144.74 0.39ZM144.10-16.95L144.10-16.95Q142.42-16.95 141.37-15.82Q140.33-14.69 140.03-12.58L140.03-12.58L147.89-12.58L147.89-13.03Q147.85-14.90 146.87-15.93Q145.89-16.95 144.10-16.95Z M157.32-21.13L162.63-21.13L162.81-18.69Q165.07-21.52 168.88-21.52L168.88-21.52Q172.24-21.52 173.88-19.55Q175.52-17.58 175.56-13.65L175.56-13.65L175.56 0L169.92 0L169.92-13.52Q169.92-15.31 169.14-16.12Q168.35-16.93 166.54-16.93L166.54-16.93Q164.15-16.93 162.96-14.90L162.96-14.90L162.96 0L157.32 0L157.32-21.13Z M181.75-26.33L187.40-26.33L187.40-21.13L191.01-21.13L191.01-16.99L187.40-16.99L187.40-6.45Q187.40-5.27 187.85-4.77Q188.29-4.26 189.56-4.26L189.56-4.26Q190.50-4.26 191.22-4.39L191.22-4.39L191.22-0.12Q189.56 0.39 187.81 0.39L187.81 0.39Q181.87 0.39 181.75-5.61L181.75-5.61L181.75-16.99L178.67-16.99L178.67-21.13L181.75-21.13L181.75-26.33Z M212.90 0L207.20 0Q206.81-0.76 206.63-1.89L206.63-1.89Q204.58 0.39 201.30 0.39L201.30 0.39Q198.20 0.39 196.16-1.41Q194.11-3.20 194.11-5.94L194.11-5.94Q194.11-9.30 196.60-11.09Q199.09-12.89 203.80-12.91L203.80-12.91L206.40-12.91L206.40-14.12Q206.40-15.59 205.65-16.46Q204.90-17.34 203.27-17.34L203.27-17.34Q201.85-17.34 201.04-16.66Q200.23-15.98 200.23-14.79L200.23-14.79L194.58-14.79Q194.58-16.62 195.72-18.18Q196.85-19.75 198.92-20.63Q200.99-21.52 203.57-21.52L203.57-21.52Q207.47-21.52 209.77-19.56Q212.06-17.60 212.06-14.04L212.06-14.04L212.06-4.88Q212.08-1.88 212.90-0.33L212.90-0.33L212.90 0ZM202.53-3.93L202.53-3.93Q203.78-3.93 204.84-4.48Q205.89-5.04 206.40-5.98L206.40-5.98L206.40-9.61L204.29-9.61Q200.05-9.61 199.78-6.68L199.78-6.68L199.76-6.35Q199.76-5.29 200.50-4.61Q201.24-3.93 202.53-3.93Z M223.16-30L223.16 0L217.49 0L217.49-30L223.16-30Z M257.22-28.44L261.89-8.20L265.71-28.44L271.55-28.44L265.24 0L259.35 0L254.72-19.02L250.09 0L244.19 0L237.88-28.44L243.72-28.44L247.57-8.24L252.26-28.44L257.22-28.44Z M284.27 0.39L284.27 0.39Q279.62 0.39 276.70-2.46Q273.78-5.31 273.78-10.06L273.78-10.06L273.78-10.61Q273.78-13.79 275.01-16.30Q276.24-18.81 278.50-20.17Q280.75-21.52 283.64-21.52L283.64-21.52Q287.98-21.52 290.47-18.79Q292.96-16.05 292.96-11.04L292.96-11.04L292.96-8.73L279.50-8.73Q279.78-6.66 281.15-5.41Q282.53-4.16 284.64-4.16L284.64-4.16Q287.90-4.16 289.74-6.52L289.74-6.52L292.51-3.42Q291.24-1.62 289.07-0.62Q286.90 0.39 284.27 0.39ZM283.62-16.95L283.62-16.95Q281.94-16.95 280.90-15.82Q279.85-14.69 279.56-12.58L279.56-12.58L287.41-12.58L287.41-13.03Q287.37-14.90 286.40-15.93Q285.42-16.95 283.62-16.95Z M302.92-30L302.92 0L297.25 0L297.25-30L302.92-30Z M314.32-30L314.32 0L308.66 0L308.66-30L314.32-30Z M319.66-21.13L324.97-21.13L325.14-18.69Q327.41-21.52 331.22-21.52L331.22-21.52Q334.58-21.52 336.22-19.55Q337.86-17.58 337.90-13.65L337.90-13.65L337.90 0L332.25 0L332.25-13.52Q332.25-15.31 331.47-16.12Q330.69-16.93 328.87-16.93L328.87-16.93Q326.49-16.93 325.30-14.90L325.30-14.90L325.30 0L319.66 0L319.66-21.13Z M352.70 0.39L352.70 0.39Q348.05 0.39 345.13-2.46Q342.21-5.31 342.21-10.06L342.21-10.06L342.21-10.61Q342.21-13.79 343.44-16.30Q344.67-18.81 346.93-20.17Q349.19-21.52 352.08-21.52L352.08-21.52Q356.41-21.52 358.90-18.79Q361.39-16.05 361.39-11.04L361.39-11.04L361.39-8.73L347.94-8.73Q348.21-6.66 349.59-5.41Q350.96-4.16 353.07-4.16L353.07-4.16Q356.33-4.16 358.17-6.52L358.17-6.52L360.94-3.42Q359.67-1.62 357.51-0.62Q355.34 0.39 352.70 0.39ZM352.06-16.95L352.06-16.95Q350.38-16.95 349.33-15.82Q348.29-14.69 347.99-12.58L347.99-12.58L355.85-12.58L355.85-13.03Q355.81-14.90 354.83-15.93Q353.85-16.95 352.06-16.95Z M376.84-5.84L376.84-5.84Q376.84-6.88 375.82-7.47Q374.79-8.07 372.53-8.54L372.53-8.54Q364.99-10.12 364.99-14.94L364.99-14.94Q364.99-17.75 367.32-19.64Q369.65-21.52 373.42-21.52L373.42-21.52Q377.45-21.52 379.86-19.63Q382.27-17.73 382.27-14.71L382.27-14.71L376.63-14.71Q376.63-15.92 375.85-16.71Q375.06-17.50 373.40-17.50L373.40-17.50Q371.98-17.50 371.20-16.86Q370.42-16.21 370.42-15.21L370.42-15.21Q370.42-14.28 371.30-13.70Q372.19-13.13 374.30-12.71Q376.41-12.29 377.86-11.76L377.86-11.76Q382.33-10.12 382.33-6.07L382.33-6.07Q382.33-3.18 379.85-1.40Q377.37 0.39 373.44 0.39L373.44 0.39Q370.79 0.39 368.73-0.56Q366.67-1.50 365.49-3.15Q364.32-4.80 364.32-6.72L364.32-6.72L369.67-6.72Q369.75-5.21 370.79-4.41Q371.82-3.61 373.56-3.61L373.56-3.61Q375.18-3.61 376.01-4.23Q376.84-4.84 376.84-5.84Z M398.21-5.84L398.21-5.84Q398.21-6.88 397.18-7.47Q396.16-8.07 393.89-8.54L393.89-8.54Q386.35-10.12 386.35-14.94L386.35-14.94Q386.35-17.75 388.69-19.64Q391.02-21.52 394.79-21.52L394.79-21.52Q398.81-21.52 401.23-19.63Q403.64-17.73 403.64-14.71L403.64-14.71L397.99-14.71Q397.99-15.92 397.21-16.71Q396.43-17.50 394.77-17.50L394.77-17.50Q393.34-17.50 392.56-16.86Q391.78-16.21 391.78-15.21L391.78-15.21Q391.78-14.28 392.67-13.70Q393.56-13.13 395.67-12.71Q397.78-12.29 399.22-11.76L399.22-11.76Q403.70-10.12 403.70-6.07L403.70-6.07Q403.70-3.18 401.22-1.40Q398.74 0.39 394.81 0.39L394.81 0.39Q392.15 0.39 390.09-0.56Q388.03-1.50 386.86-3.15Q385.69-4.80 385.69-6.72L385.69-6.72L391.04-6.72Q391.12-5.21 392.15-4.41Q393.19-3.61 394.93-3.61L394.93-3.61Q396.55-3.61 397.38-4.23Q398.21-4.84 398.21-5.84Z M409.59 7.13L409.59 7.13L406.64 5.59L407.35 4.32Q408.66 1.93 408.70-0.43L408.70-0.43L408.70-4.80L413.46-4.80L413.44-0.90Q413.42 1.27 412.35 3.48Q411.27 5.68 409.59 7.13Z M453.19-14.84L453.19-13.57Q453.19-9.38 451.70-6.21Q450.22-3.05 447.45-1.33Q444.69 0.39 441.12 0.39L441.12 0.39Q437.58 0.39 434.81-1.31Q432.03-3.01 430.51-6.16Q428.99-9.32 428.97-13.42L428.97-13.42L428.97-14.82Q428.97-19.02 430.48-22.22Q431.99-25.41 434.76-27.12Q437.52-28.83 441.08-28.83Q444.63-28.83 447.39-27.12Q450.16-25.41 451.67-22.22Q453.19-19.02 453.19-14.84L453.19-14.84ZM447.25-13.48L447.25-14.86Q447.25-19.34 445.65-21.66Q444.05-23.98 441.08-23.98L441.08-23.98Q438.13-23.98 436.53-21.69Q434.92-19.39 434.90-14.96L434.90-14.96L434.90-13.57Q434.90-9.22 436.51-6.82Q438.11-4.41 441.12-4.41L441.12-4.41Q444.06-4.41 445.65-6.73Q447.23-9.04 447.25-13.48L447.25-13.48Z M470.69 0L470.53-2.15Q468.44 0.39 464.75 0.39L464.75 0.39Q461.35 0.39 459.56-1.56Q457.78-3.52 457.74-7.29L457.74-7.29L457.74-21.13L463.38-21.13L463.38-7.48Q463.38-4.18 466.39-4.18L466.39-4.18Q469.26-4.18 470.33-6.17L470.33-6.17L470.33-21.13L476.00-21.13L476.00 0L470.69 0Z M493.01-21.27L492.93-15.84Q491.78-16.00 490.90-16.00L490.90-16.00Q487.70-16.00 486.70-13.83L486.70-13.83L486.70 0L481.06 0L481.06-21.13L486.39-21.13L486.54-18.61Q488.24-21.52 491.25-21.52L491.25-21.52Q492.19-21.52 493.01-21.27L493.01-21.27Z M518.57-10.02L513.44-10.02L513.44 0L507.58 0L507.58-28.44L518.67-28.44Q521.87-28.44 524.31-27.27Q526.74-26.09 528.05-23.94Q529.35-21.78 529.35-19.02L529.35-19.02Q529.35-14.84 526.49-12.43Q523.63-10.02 518.57-10.02L518.57-10.02ZM513.44-23.69L513.44-14.77L518.67-14.77Q521.00-14.77 522.22-15.86Q523.44-16.95 523.44-18.98L523.44-18.98Q523.44-21.07 522.21-22.36Q520.98-23.65 518.81-23.69L518.81-23.69L513.44-23.69Z M545.76-21.27L545.68-15.84Q544.53-16.00 543.65-16.00L543.65-16.00Q540.45-16.00 539.45-13.83L539.45-13.83L539.45 0L533.81 0L533.81-21.13L539.14-21.13L539.30-18.61Q540.99-21.52 544.00-21.52L544.00-21.52Q544.94-21.52 545.76-21.27L545.76-21.27Z M555.15-21.13L555.15 0L549.49 0L549.49-21.13L555.15-21.13ZM549.16-26.60L549.16-26.60Q549.16-27.87 550.01-28.69Q550.86-29.51 552.32-29.51L552.32-29.51Q553.77-29.51 554.63-28.69Q555.49-27.87 555.49-26.60L555.49-26.60Q555.49-25.31 554.62-24.49Q553.75-23.67 552.32-23.67Q550.90-23.67 550.03-24.49Q549.16-25.31 549.16-26.60Z M559.72-10.51L559.72-10.76Q559.72-13.91 560.93-16.37Q562.15-18.83 564.42-20.18Q566.70-21.52 569.70-21.52L569.70-21.52Q573.98-21.52 576.69-18.91Q579.39-16.29 579.70-11.80L579.70-11.80L579.74-10.35Q579.74-5.49 577.03-2.55Q574.31 0.39 569.74 0.39Q565.17 0.39 562.45-2.54Q559.72-5.47 559.72-10.51L559.72-10.51ZM565.37-10.35L565.37-10.35Q565.37-7.34 566.50-5.75Q567.63-4.16 569.74-4.16L569.74-4.16Q571.79-4.16 572.95-5.73Q574.10-7.30 574.10-10.76L574.10-10.76Q574.10-13.71 572.95-15.33Q571.79-16.95 569.70-16.95L569.70-16.95Q567.63-16.95 566.50-15.34Q565.37-13.73 565.37-10.35Z M595.97-21.27L595.89-15.84Q594.74-16.00 593.86-16.00L593.86-16.00Q590.66-16.00 589.66-13.83L589.66-13.83L589.66 0L584.02 0L584.02-21.13L589.35-21.13L589.51-18.61Q591.21-21.52 594.21-21.52L594.21-21.52Q595.15-21.52 595.97-21.27L595.97-21.27Z M605.37-21.13L605.37 0L599.70 0L599.70-21.13L605.37-21.13ZM599.37-26.60L599.37-26.60Q599.37-27.87 600.22-28.69Q601.07-29.51 602.53-29.51L602.53-29.51Q603.98-29.51 604.84-28.69Q605.70-27.87 605.70-26.60L605.70-26.60Q605.70-25.31 604.83-24.49Q603.96-23.67 602.53-23.67Q601.11-23.67 600.24-24.49Q599.37-25.31 599.37-26.60Z M611.93-26.33L617.57-26.33L617.57-21.13L621.19-21.13L621.19-16.99L617.57-16.99L617.57-6.45Q617.57-5.27 618.02-4.77Q618.47-4.26 619.74-4.26L619.74-4.26Q620.68-4.26 621.40-4.39L621.40-4.39L621.40-0.12Q619.74 0.39 617.98 0.39L617.98 0.39Q612.05 0.39 611.93-5.61L611.93-5.61L611.93-16.99L608.84-16.99L608.84-21.13L611.93-21.13L611.93-26.33Z M629.10-21.13L633.02-7.99L636.93-21.13L642.98-21.13L634.49 3.28L634.02 4.39Q632.12 8.54 627.77 8.54L627.77 8.54Q626.54 8.54 625.27 8.16L625.27 8.16L625.27 3.89L626.13 3.91Q627.73 3.91 628.52 3.42Q629.31 2.93 629.76 1.80L629.76 1.80L630.42 0.06L623.02-21.13L629.10-21.13Z M643.04-2.77L643.04-2.77Q643.04-4.12 643.95-4.96Q644.86-5.80 646.22-5.80L646.22-5.80Q647.61-5.80 648.52-4.96Q649.43-4.12 649.43-2.77L649.43-2.77Q649.43-1.45 648.53-0.62Q647.63 0.21 646.22 0.21L646.22 0.21Q644.84 0.21 643.94-0.62Q643.04-1.45 643.04-2.77Z"/></g>
</svg>
</g><g opacity="1" transform="rotate(0 355.8556 262.5391)">
<svg width="309.2888" height="56.3632" x="355.8556" y="262.5391" version="1.1" preserveAspectRatio="none" viewBox="0.24 -25.44 139.6 25.44">
  <g transform="matrix(1 0 0 1 0 0)" class="companyName"><path id="id-D6z1nYkh8" d="M9.36-6.56L12.56-25.44L18.48-25.44L12.88 0L5.88 0L0.24-25.44L6.20-25.44L9.36-6.56Z M21.48 0L21.48-25.44L27.16-25.44L27.16 0L21.48 0Z M30.08-25.44L45.12-25.44L45.12-21.24L40.44-21.24L40.44 0L34.72 0L34.72-21.24L30.08-21.24L30.08-25.44Z M65.28 0L59.52 0L58.64-4.60L52.84-4.60L51.96 0L46.32 0L52.08-25.44L59.36-25.44L65.28 0ZM55.72-19.52L53.64-8.76L57.80-8.76L55.72-19.52Z M73.08-17.04L73.08 0L68.04 0L68.04-25.44L74.28-25.44L78.48-11.04L82.68-25.44L88.92-25.44L88.92 0L83.88 0L83.88-17.08L80.60-5.52L76.36-5.52L73.08-17.04Z M93.44 0L93.44-25.44L99.12-25.44L99.12 0L93.44 0Z M114.28-10.24L114.28-25.44L119.52-25.44L119.52 0L114.40 0L108.84-15.24L108.84 0L103.64 0L103.64-25.44L108.80-25.44L114.28-10.24Z M124.16 0L124.16-25.44L134.76-25.44Q139.84-25.44 139.84-21.04L139.84-21.04L139.84-4.44Q139.84 0 134.76 0L134.76 0L124.16 0ZM134.12-4.92L134.12-4.92L134.12-20.52Q134.12-21.52 133.04-21.52L133.04-21.52L129.88-21.52L129.88-3.92L133.04-3.92Q134.12-3.92 134.12-4.92Z"/></g>
</svg>
</g></svg>